<?xml version="1.0" encoding="UTF-8" standalone="no"?><!DOCTYPE svg PUBLIC "-//W3C//DTD SVG 1.1//EN" "http://www.w3.org/Graphics/SVG/1.1/DTD/svg11.dtd"><svg width="100%" height="100%" viewBox="0 0 24 20" version="1.1" xmlns="http://www.w3.org/2000/svg" xmlns:xlink="http://www.w3.org/1999/xlink" xml:space="preserve" xmlns:serif="http://www.serif.com/" style="fill-rule:evenodd;clip-rule:evenodd;stroke-linejoin:round;stroke-miterlimit:1.41421;"><path id="Mail-Icon" serif:id="Mail Icon" d="M22.5,19.5l-21,0c-0.828,0 -1.5,-0.672 -1.5,-1.5l0,-16c0,-0.829 0.672,-1.5 1.5,-1.5l21,0c0.828,0 1.5,0.671 1.5,1.5l0,16c0,0.828 -0.672,1.5 -1.5,1.5Zm-1.5,-3l0,-11.575l-8.269,8.28c-0.203,0.203 -0.47,0.3 -0.736,0.294c-0.266,0.006 -0.534,-0.091 -0.737,-0.294l-8.258,-8.27l0,11.565l18,0Zm-1.439,-13l-15.132,0l7.566,7.575l7.566,-7.575Z" style="fill:#8393a7;"/></svg>